<svg width="16" height="16" viewBox="0 0 16 16" fill="none" xmlns="http://www.w3.org/2000/svg">
<path d="M12.6967 4.934C12.9487 4.682 13.0874 4.34733 13.0874 3.99133C13.0874 3.63533 12.9487 3.30066 12.6967 3.04866L11.6394 1.99133C11.3874 1.73933 11.0527 1.60066 10.6967 1.60066C10.3407 1.60066 10.0061 1.73933 9.75475 1.99066L2.66675 9.05666V12H5.60875L12.6967 4.934ZM10.6967 2.934L11.7547 3.99066L10.6947 5.04666L9.63741 3.99L10.6967 2.934ZM4.00008 10.6667V9.60999L8.69341 4.93133L9.75075 5.98866L5.05808 10.6667H4.00008ZM2.66675 13.3333H13.3334V14.6667H2.66675V13.3333Z" fill="#444444"/>
</svg>
